<svg xmlns="http://www.w3.org/2000/svg" viewBox="0 0 220 220" role="img" aria-labelledby="title desc">
  <title id="title">Vibe4Dock Logo</title>
  <desc id="desc">Vibe4Dock logo in the project brand colors.</desc>
  <rect width="220" height="220" rx="36" fill="#0f1115"/>
  <g transform="translate(14.634 14.634)">
    <path fill="#88eeff" d="M34.9 0A33.84 33.84 0 0 0 1.06 33.84v123.28a33.8 33.8 0 0 0 33.84 33.8h123.28a33.8 33.8 0 0 0 33.8-33.8V33.84A33.84 33.84 0 0 0 158.18 0Z"/>
    <path fill="#0f1115" d="m30.48 35 41.26 41.26a13.41 13.41 0 0 0-1 5.27V83H28.8V42.56A16.07 16.07 0 0 1 30.48 35Zm-1.68 72.62h41.94v1.49a14.72 14.72 0 0 0 1.12 5.12L30.6 155.49a18.62 18.62 0 0 1-1.8-7.44Zm55.44-24.58h24.54v24.58H84.24Zm-6.75 37.2a13.08 13.08 0 0 0 5.27 1h1.49v41.94H43.81a15.46 15.46 0 0 1-7.54-1.72Zm31.29 1h1.49a14.91 14.91 0 0 0 5.12-1.12l41.26 41.26a18.94 18.94 0 0 1-7.44 1.81h-40.43Zm53.76 34.6-41.26-41.26a12.61 12.61 0 0 0 1-5.26v-1.5h41.94v40.44a15.56 15.56 0 0 1-1.68 7.58Zm1.68-72.62h-41.94v-1.49a14.8 14.8 0 0 0-1.12-5.12L154.42 35.3a18.65 18.65 0 0 1 1.8 7.44Zm-48.64-12.47a13.41 13.41 0 0 0-5.27-1h-1.53V27.8h40.44a15.67 15.67 0 0 1 7.58 1.72Zm-31.33-1h-1.49a15 15 0 0 0-5.16 1.13L36.34 30.65a18.65 18.65 0 0 1 7.4-1.85h40.51ZM18.27 39.58V83H9.24v24.58h9v43.42s0 22.53 22.5 22.53h43.46v9h24.54v-9h43.45s22.5 0 22.5-22.53v-43.4h9v-24.6h-9V39.58S174.65 17 152.15 17h-43.44V8h-24.5v9H40.77s-22.5 0-22.5 22.54Z"/>
  </g>
</svg>
